<svg xmlns="http://www.w3.org/2000/svg" xmlns:xlink="http://www.w3.org/1999/xlink" xmlns:s="https://github.com/nturley/netlistsvg" width="1037" height="1040.5">
  <style>svg {
    stroke:#000;
    fill:none;
  }
  text {
    fill:#000;
    stroke:none;
    font-size:10px;
    font-weight: bold;
    font-family: "Courier New", monospace;
  }
  .nodelabel {
    text-anchor: middle;
  }
  .inputPortLabel {
    text-anchor: end;
  }
  .splitjoinBody {
    fill:#000;
  }</style>
  <g s:type="mux" transform="translate(793,388)" s:width="20" s:height="40" id="cell_$auto$proc_dff.cc:309:proc_dff$25">
    <s:alias val="$pmux"/>
    <s:alias val="$mux"/>
    <s:alias val="$_MUX_"/>
    <path d="M0,0 L20,10 L20,30 L0,40 Z" class="cell_$auto$proc_dff.cc:309:proc_dff$25"/>
    <g s:x="0" s:y="10" s:pid="A"/>
    <g s:x="0" s:y="30" s:pid="B"/>
    <g s:x="10" s:y="35" s:pid="S"/>
    <g s:x="20" s:y="20" s:pid="Y"/>
  </g>
  <g s:type="not" transform="translate(939,1006.5)" s:width="30" s:height="20" id="cell_$not$../module21/column4/width12/code/top_code.v:20$2">
    <s:alias val="$_NOT_"/>
    <s:alias val="$not"/>
    <s:alias val="$logic_not"/>
    <path d="M0,0 L0,20 L20,10 Z" class="cell_$not$../module21/column4/width12/code/top_code.v:20$2"/>
    <circle cx="23" cy="10" r="3" class="cell_$not$../module21/column4/width12/code/top_code.v:20$2"/>
    <g s:x="0" s:y="10" s:pid="A"/>
    <g s:x="25" s:y="10" s:pid="Y"/>
  </g>
  <g s:type="dff" transform="translate(849,398)" s:width="30" s:height="40" id="cell_$procdff$27">
    <s:alias val="$dff"/>
    <s:alias val="$_DFF_"/>
    <s:alias val="$_DFF_P_"/>
    <rect width="30" height="40" x="0" y="0" class="cell_$procdff$27"/>
    <path d="M0,35 L5,30 L0,25" class="cell_$procdff$27"/>
    <g s:x="30" s:y="10" s:pid="Q"/>
    <g s:x="0" s:y="30" s:pid="CLK"/>
    <g s:x="0" s:y="30" s:pid="C"/>
    <g s:x="0" s:y="10" s:pid="D"/>
  </g>
  <g s:type="generic" transform="translate(107,93.5)" s:width="30" s:height="40" id="cell_$procdff$28">
    <text x="15" y="-4" class="nodelabel cell_$procdff$28" s:attribute="ref">$adff</text>
    <rect width="30" height="60" s:generic="body" class="cell_$procdff$28"/>
    <g transform="translate(0,10)" s:x="0" s:y="10" s:pid="in0" id="port_$procdff$28~ARST">
      <text x="-3" y="-4" class="inputPortLabel cell_$procdff$28">ARST</text>
    </g>
    <g transform="translate(0,30)" s:x="0" s:y="10" s:pid="in0" id="port_$procdff$28~CLK">
      <text x="-3" y="-4" class="inputPortLabel cell_$procdff$28">CLK</text>
    </g>
    <g transform="translate(0,50)" s:x="0" s:y="10" s:pid="in0" id="port_$procdff$28~D">
      <text x="-3" y="-4" class="inputPortLabel cell_$procdff$28">D</text>
    </g>
    <g transform="translate(30,10)" s:x="30" s:y="10" s:pid="out0" id="port_$procdff$28~Q">
      <text x="5" y="-4" style="fill:#000; stroke:none" class="cell_$procdff$28">Q</text>
    </g>
  </g>
  <g s:type="generic" transform="translate(389,910.5)" s:width="30" s:height="40" id="cell_$procdff$29">
    <text x="15" y="-4" class="nodelabel cell_$procdff$29" s:attribute="ref">$adff</text>
    <rect width="30" height="60" s:generic="body" class="cell_$procdff$29"/>
    <g transform="translate(0,10)" s:x="0" s:y="10" s:pid="in0" id="port_$procdff$29~ARST">
      <text x="-3" y="-4" class="inputPortLabel cell_$procdff$29">ARST</text>
    </g>
    <g transform="translate(0,30)" s:x="0" s:y="10" s:pid="in0" id="port_$procdff$29~CLK">
      <text x="-3" y="-4" class="inputPortLabel cell_$procdff$29">CLK</text>
    </g>
    <g transform="translate(0,50)" s:x="0" s:y="10" s:pid="in0" id="port_$procdff$29~D">
      <text x="-3" y="-4" class="inputPortLabel cell_$procdff$29">D</text>
    </g>
    <g transform="translate(30,10)" s:x="30" s:y="10" s:pid="out0" id="port_$procdff$29~Q">
      <text x="5" y="-4" style="fill:#000; stroke:none" class="cell_$procdff$29">Q</text>
    </g>
  </g>
  <g s:type="generic" transform="translate(692,724.5)" s:width="30" s:height="40" id="cell_$procdff$30">
    <text x="15" y="-4" class="nodelabel cell_$procdff$30" s:attribute="ref">$adff</text>
    <rect width="30" height="60" s:generic="body" class="cell_$procdff$30"/>
    <g transform="translate(0,10)" s:x="0" s:y="10" s:pid="in0" id="port_$procdff$30~ARST">
      <text x="-3" y="-4" class="inputPortLabel cell_$procdff$30">ARST</text>
    </g>
    <g transform="translate(0,30)" s:x="0" s:y="10" s:pid="in0" id="port_$procdff$30~CLK">
      <text x="-3" y="-4" class="inputPortLabel cell_$procdff$30">CLK</text>
    </g>
    <g transform="translate(0,50)" s:x="0" s:y="10" s:pid="in0" id="port_$procdff$30~D">
      <text x="-3" y="-4" class="inputPortLabel cell_$procdff$30">D</text>
    </g>
    <g transform="translate(30,10)" s:x="30" s:y="10" s:pid="out0" id="port_$procdff$30~Q">
      <text x="5" y="-4" style="fill:#000; stroke:none" class="cell_$procdff$30">Q</text>
    </g>
  </g>
  <g s:type="generic" transform="translate(939,463)" s:width="30" s:height="40" id="cell_$procdff$31">
    <text x="15" y="-4" class="nodelabel cell_$procdff$31" s:attribute="ref">$adff</text>
    <rect width="30" height="60" s:generic="body" class="cell_$procdff$31"/>
    <g transform="translate(0,10)" s:x="0" s:y="10" s:pid="in0" id="port_$procdff$31~ARST">
      <text x="-3" y="-4" class="inputPortLabel cell_$procdff$31">ARST</text>
    </g>
    <g transform="translate(0,30)" s:x="0" s:y="10" s:pid="in0" id="port_$procdff$31~CLK">
      <text x="-3" y="-4" class="inputPortLabel cell_$procdff$31">CLK</text>
    </g>
    <g transform="translate(0,50)" s:x="0" s:y="10" s:pid="in0" id="port_$procdff$31~D">
      <text x="-3" y="-4" class="inputPortLabel cell_$procdff$31">D</text>
    </g>
    <g transform="translate(30,10)" s:x="30" s:y="10" s:pid="out0" id="port_$procdff$31~Q">
      <text x="5" y="-4" style="fill:#000; stroke:none" class="cell_$procdff$31">Q</text>
    </g>
  </g>
  <g s:type="mux" transform="translate(793,483.5)" s:width="20" s:height="40" id="cell_$procmux$11">
    <s:alias val="$pmux"/>
    <s:alias val="$mux"/>
    <s:alias val="$_MUX_"/>
    <path d="M0,0 L20,10 L20,30 L0,40 Z" class="cell_$procmux$11"/>
    <g s:x="0" s:y="10" s:pid="A"/>
    <g s:x="0" s:y="30" s:pid="B"/>
    <g s:x="10" s:y="35" s:pid="S"/>
    <g s:x="20" s:y="20" s:pid="Y"/>
  </g>
  <g s:type="mux" transform="translate(510.3333333333333,766)" s:width="20" s:height="40" id="cell_$procmux$13">
    <s:alias val="$pmux"/>
    <s:alias val="$mux"/>
    <s:alias val="$_MUX_"/>
    <path d="M0,0 L20,10 L20,30 L0,40 Z" class="cell_$procmux$13"/>
    <g s:x="0" s:y="10" s:pid="A"/>
    <g s:x="0" s:y="30" s:pid="B"/>
    <g s:x="10" s:y="35" s:pid="S"/>
    <g s:x="20" s:y="20" s:pid="Y"/>
  </g>
  <g s:type="mux" transform="translate(243,620.5)" s:width="20" s:height="40" id="cell_$procmux$15">
    <s:alias val="$pmux"/>
    <s:alias val="$mux"/>
    <s:alias val="$_MUX_"/>
    <path d="M0,0 L20,10 L20,30 L0,40 Z" class="cell_$procmux$15"/>
    <g s:x="0" s:y="10" s:pid="A"/>
    <g s:x="0" s:y="30" s:pid="B"/>
    <g s:x="10" s:y="35" s:pid="S"/>
    <g s:x="20" s:y="20" s:pid="Y"/>
  </g>
  <g s:type="mux" transform="translate(243,819.5)" s:width="20" s:height="40" id="cell_$procmux$17">
    <s:alias val="$pmux"/>
    <s:alias val="$mux"/>
    <s:alias val="$_MUX_"/>
    <path d="M0,0 L20,10 L20,30 L0,40 Z" class="cell_$procmux$17"/>
    <g s:x="0" s:y="10" s:pid="A"/>
    <g s:x="0" s:y="30" s:pid="B"/>
    <g s:x="10" s:y="35" s:pid="S"/>
    <g s:x="20" s:y="20" s:pid="Y"/>
  </g>
  <g s:type="mux" transform="translate(510.3333333333333,891)" s:width="20" s:height="40" id="cell_$procmux$19">
    <s:alias val="$pmux"/>
    <s:alias val="$mux"/>
    <s:alias val="$_MUX_"/>
    <path d="M0,0 L20,10 L20,30 L0,40 Z" class="cell_$procmux$19"/>
    <g s:x="0" s:y="10" s:pid="A"/>
    <g s:x="0" s:y="30" s:pid="B"/>
    <g s:x="10" s:y="35" s:pid="S"/>
    <g s:x="20" s:y="20" s:pid="Y"/>
  </g>
  <g s:type="mux" transform="translate(939,33)" s:width="20" s:height="40" id="cell_$procmux$21">
    <s:alias val="$pmux"/>
    <s:alias val="$mux"/>
    <s:alias val="$_MUX_"/>
    <path d="M0,0 L20,10 L20,30 L0,40 Z" class="cell_$procmux$21"/>
    <g s:x="0" s:y="10" s:pid="A"/>
    <g s:x="0" s:y="30" s:pid="B"/>
    <g s:x="10" s:y="35" s:pid="S"/>
    <g s:x="20" s:y="20" s:pid="Y"/>
  </g>
  <g s:type="mux" transform="translate(793,543.5)" s:width="20" s:height="40" id="cell_$procmux$23">
    <s:alias val="$pmux"/>
    <s:alias val="$mux"/>
    <s:alias val="$_MUX_"/>
    <path d="M0,0 L20,10 L20,30 L0,40 Z" class="cell_$procmux$23"/>
    <g s:x="0" s:y="10" s:pid="A"/>
    <g s:x="0" s:y="30" s:pid="B"/>
    <g s:x="10" s:y="35" s:pid="S"/>
    <g s:x="20" s:y="20" s:pid="Y"/>
  </g>
  <g s:type="mux" transform="translate(612,306)" s:width="20" s:height="40" id="cell_$procmux$3">
    <s:alias val="$pmux"/>
    <s:alias val="$mux"/>
    <s:alias val="$_MUX_"/>
    <path d="M0,0 L20,10 L20,30 L0,40 Z" class="cell_$procmux$3"/>
    <g s:x="0" s:y="10" s:pid="A"/>
    <g s:x="0" s:y="30" s:pid="B"/>
    <g s:x="10" s:y="35" s:pid="S"/>
    <g s:x="20" s:y="20" s:pid="Y"/>
  </g>
  <g s:type="mux" transform="translate(612,215.5)" s:width="20" s:height="40" id="cell_$procmux$5">
    <s:alias val="$pmux"/>
    <s:alias val="$mux"/>
    <s:alias val="$_MUX_"/>
    <path d="M0,0 L20,10 L20,30 L0,40 Z" class="cell_$procmux$5"/>
    <g s:x="0" s:y="10" s:pid="A"/>
    <g s:x="0" s:y="30" s:pid="B"/>
    <g s:x="10" s:y="35" s:pid="S"/>
    <g s:x="20" s:y="20" s:pid="Y"/>
  </g>
  <g s:type="mux" transform="translate(612,134)" s:width="20" s:height="40" id="cell_$procmux$7">
    <s:alias val="$pmux"/>
    <s:alias val="$mux"/>
    <s:alias val="$_MUX_"/>
    <path d="M0,0 L20,10 L20,30 L0,40 Z" class="cell_$procmux$7"/>
    <g s:x="0" s:y="10" s:pid="A"/>
    <g s:x="0" s:y="30" s:pid="B"/>
    <g s:x="10" s:y="35" s:pid="S"/>
    <g s:x="20" s:y="20" s:pid="Y"/>
  </g>
  <g s:type="mux" transform="translate(612,74)" s:width="20" s:height="40" id="cell_$procmux$9">
    <s:alias val="$pmux"/>
    <s:alias val="$mux"/>
    <s:alias val="$_MUX_"/>
    <path d="M0,0 L20,10 L20,30 L0,40 Z" class="cell_$procmux$9"/>
    <g s:x="0" s:y="10" s:pid="A"/>
    <g s:x="0" s:y="30" s:pid="B"/>
    <g s:x="10" s:y="35" s:pid="S"/>
    <g s:x="20" s:y="20" s:pid="Y"/>
  </g>
  <g s:type="inputExt" transform="translate(12,745)" s:width="30" s:height="20" id="cell_clk">
    <text x="15" y="-4" class="nodelabel cell_clk" s:attribute="ref">clk</text>
    <s:alias val="$_inputExt_"/>
    <path d="M0,0 L0,20 L15,20 L30,10 L15,0 Z" class="cell_clk"/>
    <g s:x="28" s:y="10" s:pid="Y"/>
  </g>
  <g s:type="inputExt" transform="translate(12,911)" s:width="30" s:height="20" id="cell_rst_n">
    <text x="15" y="-4" class="nodelabel cell_rst_n" s:attribute="ref">rst_n</text>
    <s:alias val="$_inputExt_"/>
    <path d="M0,0 L0,20 L15,20 L30,10 L15,0 Z" class="cell_rst_n"/>
    <g s:x="28" s:y="10" s:pid="Y"/>
  </g>
  <g s:type="inputExt" transform="translate(107,705)" s:width="30" s:height="20" id="cell_en">
    <text x="15" y="-4" class="nodelabel cell_en" s:attribute="ref">en</text>
    <s:alias val="$_inputExt_"/>
    <path d="M0,0 L0,20 L15,20 L30,10 L15,0 Z" class="cell_en"/>
    <g s:x="28" s:y="10" s:pid="Y"/>
  </g>
  <g s:type="inputExt" transform="translate(12,513.5)" s:width="30" s:height="20" id="cell_din">
    <text x="15" y="-4" class="nodelabel cell_din" s:attribute="ref">din</text>
    <s:alias val="$_inputExt_"/>
    <path d="M0,0 L0,20 L15,20 L30,10 L15,0 Z" class="cell_din"/>
    <g s:x="28" s:y="10" s:pid="Y"/>
  </g>
  <g s:type="outputExt" transform="translate(939,398)" s:width="30" s:height="20" id="cell_dout">
    <text x="15" y="-4" class="nodelabel cell_dout" s:attribute="ref">dout</text>
    <s:alias val="$_outputExt_"/>
    <path d="M30,0 L30,20 L15,20 L0,10 L15,0 Z" class="cell_dout"/>
    <g s:x="0" s:y="10" s:pid="A"/>
  </g>
  <g s:type="join" transform="translate(701.25,83.5)" s:width="4" s:height="40" id="cell_$join$,101,102,103,104,105,106,107,108,109,110,111,112,113,114,115,116,117,118,119,120,121,122,123,124,125,126,127,128,129,130,131,132,133,134,135,136,137,138,139,140,141,142,143,144,145,146,147,148,">
    <rect width="5" height="80" class="splitjoinBody" s:generic="body"/>
    <s:alias val="$_join_"/>
    <g s:x="5" s:y="20" s:pid="out"/>
    <g transform="translate(0,10)" s:x="0" s:y="10" s:pid="in0">
      <text x="-3" y="-4" class="inputPortLabel">0:11</text>
    </g>
    <g transform="translate(0,30)" s:x="0" s:y="10" s:pid="in0">
      <text x="-3" y="-4" class="inputPortLabel">12:23</text>
    </g>
    <g transform="translate(0,50)" s:x="0" s:y="10" s:pid="in0">
      <text x="-3" y="-4" class="inputPortLabel">24:35</text>
    </g>
    <g transform="translate(0,70)" s:x="0" s:y="10" s:pid="in0">
      <text x="-3" y="-4" class="inputPortLabel">36:47</text>
    </g>
  </g>
  <g s:type="join" transform="translate(323,809)" s:width="4" s:height="40" id="cell_$join$,222,223,224,225,226,227,228,229,230,231,232,233,234,235,236,237,238,239,240,241,242,243,244,245,">
    <rect width="5" height="40" class="splitjoinBody" s:generic="body"/>
    <s:alias val="$_join_"/>
    <g s:x="5" s:y="20" s:pid="out"/>
    <g transform="translate(0,10)" s:x="0" s:y="10" s:pid="in0">
      <text x="-3" y="-4" class="inputPortLabel">0:11</text>
    </g>
    <g transform="translate(0,30)" s:x="0" s:y="10" s:pid="in0">
      <text x="-3" y="-4" class="inputPortLabel">12:23</text>
    </g>
  </g>
  <g s:type="join" transform="translate(626,775.5)" s:width="4" s:height="40" id="cell_$join$,270,271,272,273,274,275,276,277,278,279,280,281,282,283,284,285,286,287,288,289,290,291,292,293,294,295,296,297,298,299,300,301,302,303,304,305,">
    <rect width="5" height="40" class="splitjoinBody" s:generic="body"/>
    <s:alias val="$_join_"/>
    <g s:x="5" s:y="20" s:pid="out"/>
    <g transform="translate(0,10)" s:x="0" s:y="10" s:pid="in0">
      <text x="-3" y="-4" class="inputPortLabel">0:11</text>
    </g>
    <g transform="translate(0,30)" s:x="0" s:y="10" s:pid="in0">
      <text x="-3" y="-4" class="inputPortLabel">12:35</text>
    </g>
  </g>
  <g s:type="join" transform="translate(873,493)" s:width="4" s:height="40" id="cell_$join$,342,343,344,345,346,347,348,349,350,351,352,353,354,355,356,357,358,359,360,361,362,363,364,365,366,367,368,369,370,371,372,373,374,375,376,377,378,379,380,381,382,383,384,385,386,387,388,389,">
    <rect width="5" height="40" class="splitjoinBody" s:generic="body"/>
    <s:alias val="$_join_"/>
    <g s:x="5" s:y="20" s:pid="out"/>
    <g transform="translate(0,10)" s:x="0" s:y="10" s:pid="in0">
      <text x="-3" y="-4" class="inputPortLabel">0:11</text>
    </g>
    <g transform="translate(0,30)" s:x="0" s:y="10" s:pid="in0">
      <text x="-3" y="-4" class="inputPortLabel">12:47</text>
    </g>
  </g>
  <g s:type="split" transform="translate(505,307)" s:width="5" s:height="40" id="cell_$split$,390,391,392,393,394,395,396,397,398,399,400,401,402,403,404,405,406,407,408,409,410,411,412,413,414,415,416,417,418,419,420,421,422,423,424,425,426,427,428,429,430,431,432,433,434,435,436,437,">
    <rect width="5" height="60" class="splitjoinBody" s:generic="body"/>
    <s:alias val="$_split_"/>
    <g s:x="0" s:y="20" s:pid="in"/>
    <g transform="translate(4,10)" s:x="4" s:y="10" s:pid="out0">
      <text x="5" y="-4">0:11</text>
    </g>
    <g transform="translate(4,30)" s:x="4" s:y="10" s:pid="out0">
      <text x="5" y="-4">12:47</text>
    </g>
    <g transform="translate(4,50)" s:x="4" s:y="10" s:pid="out0">
      <text x="5" y="-4">36:47</text>
    </g>
  </g>
  <g s:type="split" transform="translate(129.2,503)" s:width="5" s:height="40" id="cell_$split$,5,6,7,8,9,10,11,12,13,14,15,16,17,18,19,20,21,22,23,24,25,26,27,28,29,30,31,32,33,34,35,36,37,38,39,40,41,42,43,44,45,46,47,48,49,50,51,52,">
    <rect width="5" height="80" class="splitjoinBody" s:generic="body"/>
    <s:alias val="$_split_"/>
    <g s:x="0" s:y="20" s:pid="in"/>
    <g transform="translate(4,10)" s:x="4" s:y="10" s:pid="out0">
      <text x="5" y="-4">36:47</text>
    </g>
    <g transform="translate(4,30)" s:x="4" s:y="10" s:pid="out0">
      <text x="5" y="-4">24:35</text>
    </g>
    <g transform="translate(4,50)" s:x="4" s:y="10" s:pid="out0">
      <text x="5" y="-4">12:23</text>
    </g>
    <g transform="translate(4,70)" s:x="4" s:y="10" s:pid="out0">
      <text x="5" y="-4">0:11</text>
    </g>
  </g>
  <g s:type="split" transform="translate(414,574.5)" s:width="5" s:height="40" id="cell_$split$,306,307,308,309,310,311,312,313,314,315,316,317,318,319,320,321,322,323,324,325,326,327,328,329,330,331,332,333,334,335,336,337,338,339,340,341,">
    <rect width="5" height="60" class="splitjoinBody" s:generic="body"/>
    <s:alias val="$_split_"/>
    <g s:x="0" s:y="20" s:pid="in"/>
    <g transform="translate(4,10)" s:x="4" s:y="10" s:pid="out0">
      <text x="5" y="-4">0:11</text>
    </g>
    <g transform="translate(4,30)" s:x="4" s:y="10" s:pid="out0">
      <text x="5" y="-4">12:35</text>
    </g>
    <g transform="translate(4,50)" s:x="4" s:y="10" s:pid="out0">
      <text x="5" y="-4">24:35</text>
    </g>
  </g>
  <g s:type="split" transform="translate(132,620)" s:width="5" s:height="40" id="cell_$split$,246,247,248,249,250,251,252,253,254,255,256,257,258,259,260,261,262,263,264,265,266,267,268,269,">
    <rect width="5" height="40" class="splitjoinBody" s:generic="body"/>
    <s:alias val="$_split_"/>
    <g s:x="0" s:y="20" s:pid="in"/>
    <g transform="translate(4,10)" s:x="4" s:y="10" s:pid="out0">
      <text x="5" y="-4">0:11</text>
    </g>
    <g transform="translate(4,30)" s:x="4" s:y="10" s:pid="out0">
      <text x="5" y="-4">12:23</text>
    </g>
  </g>
  <g s:type="split" transform="translate(505,195)" s:width="5" s:height="40" id="cell_$split$,53,54,55,56,57,58,59,60,61,62,63,64,65,66,67,68,69,70,71,72,73,74,75,76,77,78,79,80,81,82,83,84,85,86,87,88,89,90,91,92,93,94,95,96,97,98,99,100,">
    <rect width="5" height="80" class="splitjoinBody" s:generic="body"/>
    <s:alias val="$_split_"/>
    <g s:x="0" s:y="20" s:pid="in"/>
    <g transform="translate(4,10)" s:x="4" s:y="10" s:pid="out0">
      <text x="5" y="-4">36:47</text>
    </g>
    <g transform="translate(4,30)" s:x="4" s:y="10" s:pid="out0">
      <text x="5" y="-4">24:35</text>
    </g>
    <g transform="translate(4,50)" s:x="4" s:y="10" s:pid="out0">
      <text x="5" y="-4">12:23</text>
    </g>
    <g transform="translate(4,70)" s:x="4" s:y="10" s:pid="out0">
      <text x="5" y="-4">0:11</text>
    </g>
  </g>
  <line x1="879" x2="889" y1="408" y2="408" class="net_53,54,55,56,57,58,59,60,61,62,63,64,65,66,67,68,69,70,71,72,73,74,75,76,77,78,79,80,81,82,83,84,85,86,87,88,89,90,91,92,93,94,95,96,97,98,99,100"/>
  <line x1="889" x2="889" y1="408" y2="460" class="net_53,54,55,56,57,58,59,60,61,62,63,64,65,66,67,68,69,70,71,72,73,74,75,76,77,78,79,80,81,82,83,84,85,86,87,88,89,90,91,92,93,94,95,96,97,98,99,100"/>
  <line x1="889" x2="768" y1="460" y2="460" class="net_53,54,55,56,57,58,59,60,61,62,63,64,65,66,67,68,69,70,71,72,73,74,75,76,77,78,79,80,81,82,83,84,85,86,87,88,89,90,91,92,93,94,95,96,97,98,99,100"/>
  <line x1="768" x2="768" y1="460" y2="398" class="net_53,54,55,56,57,58,59,60,61,62,63,64,65,66,67,68,69,70,71,72,73,74,75,76,77,78,79,80,81,82,83,84,85,86,87,88,89,90,91,92,93,94,95,96,97,98,99,100"/>
  <circle cx="768" cy="460" r="2" style="fill:#000" class="net_53,54,55,56,57,58,59,60,61,62,63,64,65,66,67,68,69,70,71,72,73,74,75,76,77,78,79,80,81,82,83,84,85,86,87,88,89,90,91,92,93,94,95,96,97,98,99,100"/>
  <line x1="768" x2="793" y1="398" y2="398" class="net_53,54,55,56,57,58,59,60,61,62,63,64,65,66,67,68,69,70,71,72,73,74,75,76,77,78,79,80,81,82,83,84,85,86,87,88,89,90,91,92,93,94,95,96,97,98,99,100"/>
  <line x1="879" x2="939" y1="408" y2="408" class="net_53,54,55,56,57,58,59,60,61,62,63,64,65,66,67,68,69,70,71,72,73,74,75,76,77,78,79,80,81,82,83,84,85,86,87,88,89,90,91,92,93,94,95,96,97,98,99,100"/>
  <line x1="879" x2="889" y1="408" y2="408" class="net_53,54,55,56,57,58,59,60,61,62,63,64,65,66,67,68,69,70,71,72,73,74,75,76,77,78,79,80,81,82,83,84,85,86,87,88,89,90,91,92,93,94,95,96,97,98,99,100"/>
  <line x1="889" x2="889" y1="408" y2="460" class="net_53,54,55,56,57,58,59,60,61,62,63,64,65,66,67,68,69,70,71,72,73,74,75,76,77,78,79,80,81,82,83,84,85,86,87,88,89,90,91,92,93,94,95,96,97,98,99,100"/>
  <line x1="889" x2="475" y1="460" y2="460" class="net_53,54,55,56,57,58,59,60,61,62,63,64,65,66,67,68,69,70,71,72,73,74,75,76,77,78,79,80,81,82,83,84,85,86,87,88,89,90,91,92,93,94,95,96,97,98,99,100"/>
  <line x1="475" x2="475" y1="460" y2="215.5" class="net_53,54,55,56,57,58,59,60,61,62,63,64,65,66,67,68,69,70,71,72,73,74,75,76,77,78,79,80,81,82,83,84,85,86,87,88,89,90,91,92,93,94,95,96,97,98,99,100"/>
  <circle cx="889" cy="408" r="2" style="fill:#000" class="net_53,54,55,56,57,58,59,60,61,62,63,64,65,66,67,68,69,70,71,72,73,74,75,76,77,78,79,80,81,82,83,84,85,86,87,88,89,90,91,92,93,94,95,96,97,98,99,100"/>
  <line x1="475" x2="505" y1="215.5" y2="215.5" class="net_53,54,55,56,57,58,59,60,61,62,63,64,65,66,67,68,69,70,71,72,73,74,75,76,77,78,79,80,81,82,83,84,85,86,87,88,89,90,91,92,93,94,95,96,97,98,99,100"/>
  <line x1="707.25" x2="778" y1="104" y2="104" class="net_101,102,103,104,105,106,107,108,109,110,111,112,113,114,115,116,117,118,119,120,121,122,123,124,125,126,127,128,129,130,131,132,133,134,135,136,137,138,139,140,141,142,143,144,145,146,147,148"/>
  <line x1="778" x2="778" y1="104" y2="418" class="net_101,102,103,104,105,106,107,108,109,110,111,112,113,114,115,116,117,118,119,120,121,122,123,124,125,126,127,128,129,130,131,132,133,134,135,136,137,138,139,140,141,142,143,144,145,146,147,148"/>
  <line x1="778" x2="793" y1="418" y2="418" class="net_101,102,103,104,105,106,107,108,109,110,111,112,113,114,115,116,117,118,119,120,121,122,123,124,125,126,127,128,129,130,131,132,133,134,135,136,137,138,139,140,141,142,143,144,145,146,147,148"/>
  <line x1="40" x2="52" y1="921" y2="921" class="net_3"/>
  <line x1="52" x2="52" y1="921" y2="438" class="net_3"/>
  <line x1="52" x2="803" y1="438" y2="438" class="net_3"/>
  <circle cx="52" cy="921" r="2" style="fill:#000" class="net_3"/>
  <circle cx="52" cy="438" r="2" style="fill:#000" class="net_3"/>
  <line x1="803" x2="803" y1="438" y2="423" class="net_3"/>
  <line x1="40" x2="52" y1="921" y2="921" class="net_3"/>
  <line x1="52" x2="52" y1="921" y2="1016.5" class="net_3"/>
  <line x1="52" x2="939" y1="1016.5" y2="1016.5" class="net_3"/>
  <line x1="40" x2="52" y1="921" y2="921" class="net_3"/>
  <line x1="52" x2="52" y1="921" y2="104" class="net_3"/>
  <line x1="52" x2="107" y1="104" y2="104" class="net_3"/>
  <line x1="40" x2="389" y1="921" y2="921" class="net_3"/>
  <line x1="40" x2="52" y1="921" y2="921" class="net_3"/>
  <line x1="52" x2="52" y1="921" y2="735" class="net_3"/>
  <circle cx="52" cy="735" r="2" style="fill:#000" class="net_3"/>
  <line x1="52" x2="692" y1="735" y2="735" class="net_3"/>
  <line x1="40" x2="52" y1="921" y2="921" class="net_3"/>
  <line x1="52" x2="52" y1="921" y2="994.5" class="net_3"/>
  <line x1="52" x2="889" y1="994.5" y2="994.5" class="net_3"/>
  <line x1="889" x2="889" y1="994.5" y2="473.5" class="net_3"/>
  <circle cx="52" cy="994.5" r="2" style="fill:#000" class="net_3"/>
  <line x1="889" x2="939" y1="473.5" y2="473.5" class="net_3"/>
  <line x1="40" x2="62" y1="755" y2="755" class="net_2"/>
  <line x1="62" x2="62" y1="755" y2="449" class="net_2"/>
  <line x1="62" x2="823" y1="449" y2="449" class="net_2"/>
  <line x1="823" x2="823" y1="449" y2="428" class="net_2"/>
  <circle cx="62" cy="755" r="2" style="fill:#000" class="net_2"/>
  <circle cx="62" cy="449" r="2" style="fill:#000" class="net_2"/>
  <line x1="823" x2="849" y1="428" y2="428" class="net_2"/>
  <line x1="40" x2="62" y1="755" y2="755" class="net_2"/>
  <line x1="62" x2="62" y1="755" y2="124" class="net_2"/>
  <line x1="62" x2="107" y1="124" y2="124" class="net_2"/>
  <line x1="40" x2="62" y1="755" y2="755" class="net_2"/>
  <line x1="62" x2="62" y1="755" y2="941" class="net_2"/>
  <circle cx="62" cy="941" r="2" style="fill:#000" class="net_2"/>
  <line x1="62" x2="389" y1="941" y2="941" class="net_2"/>
  <line x1="40" x2="692" y1="755" y2="755" class="net_2"/>
  <line x1="40" x2="62" y1="755" y2="755" class="net_2"/>
  <line x1="62" x2="62" y1="755" y2="1005.5" class="net_2"/>
  <line x1="62" x2="899" y1="1005.5" y2="1005.5" class="net_2"/>
  <line x1="899" x2="899" y1="1005.5" y2="493.5" class="net_2"/>
  <line x1="899" x2="939" y1="493.5" y2="493.5" class="net_2"/>
  <line x1="813" x2="849" y1="408" y2="408" class="net_149,150,151,152,153,154,155,156,157,158,159,160,161,162,163,164,165,166,167,168,169,170,171,172,173,174,175,176,177,178,179,180,181,182,183,184,185,186,187,188,189,190,191,192,193,194,195,196"/>
  <line x1="959" x2="1015" y1="53" y2="53" class="net_198,199,200,201,202,203,204,205,206,207,208,209"/>
  <line x1="1015" x2="1015" y1="53" y2="23" class="net_198,199,200,201,202,203,204,205,206,207,208,209"/>
  <line x1="1015" x2="72" y1="23" y2="23" class="net_198,199,200,201,202,203,204,205,206,207,208,209"/>
  <line x1="72" x2="72" y1="23" y2="144" class="net_198,199,200,201,202,203,204,205,206,207,208,209"/>
  <line x1="72" x2="107" y1="144" y2="144" class="net_198,199,200,201,202,203,204,205,206,207,208,209"/>
  <line x1="329" x2="339" y1="829.5" y2="829.5" class="net_222,223,224,225,226,227,228,229,230,231,232,233,234,235,236,237,238,239,240,241,242,243,244,245"/>
  <line x1="339" x2="339" y1="829.5" y2="961" class="net_222,223,224,225,226,227,228,229,230,231,232,233,234,235,236,237,238,239,240,241,242,243,244,245"/>
  <line x1="339" x2="389" y1="961" y2="961" class="net_222,223,224,225,226,227,228,229,230,231,232,233,234,235,236,237,238,239,240,241,242,243,244,245"/>
  <line x1="632" x2="642" y1="796" y2="796" class="net_270,271,272,273,274,275,276,277,278,279,280,281,282,283,284,285,286,287,288,289,290,291,292,293,294,295,296,297,298,299,300,301,302,303,304,305"/>
  <line x1="642" x2="642" y1="796" y2="775" class="net_270,271,272,273,274,275,276,277,278,279,280,281,282,283,284,285,286,287,288,289,290,291,292,293,294,295,296,297,298,299,300,301,302,303,304,305"/>
  <line x1="642" x2="692" y1="775" y2="775" class="net_270,271,272,273,274,275,276,277,278,279,280,281,282,283,284,285,286,287,288,289,290,291,292,293,294,295,296,297,298,299,300,301,302,303,304,305"/>
  <line x1="879" x2="939" y1="513.5" y2="513.5" class="net_342,343,344,345,346,347,348,349,350,351,352,353,354,355,356,357,358,359,360,361,362,363,364,365,366,367,368,369,370,371,372,373,374,375,376,377,378,379,380,381,382,383,384,385,386,387,388,389"/>
  <line x1="510" x2="571" y1="317.5" y2="317.5" class="net_390,391,392,393,394,395,396,397,398,399,400,401"/>
  <line x1="571" x2="571" y1="317.5" y2="493.5" class="net_390,391,392,393,394,395,396,397,398,399,400,401"/>
  <line x1="571" x2="793" y1="493.5" y2="493.5" class="net_390,391,392,393,394,395,396,397,398,399,400,401"/>
  <line x1="134.2" x2="793" y1="513.5" y2="513.5" class="net_41,42,43,44,45,46,47,48,49,50,51,52"/>
  <line x1="135" x2="223" y1="715" y2="715" class="net_4"/>
  <line x1="223" x2="223" y1="715" y2="533.5" class="net_4"/>
  <line x1="223" x2="803" y1="533.5" y2="533.5" class="net_4"/>
  <circle cx="223" cy="715" r="2" style="fill:#000" class="net_4"/>
  <circle cx="223" cy="533.5" r="2" style="fill:#000" class="net_4"/>
  <line x1="803" x2="803" y1="533.5" y2="518.5" class="net_4"/>
  <line x1="135" x2="223" y1="715" y2="715" class="net_4"/>
  <line x1="223" x2="223" y1="715" y2="879.5" class="net_4"/>
  <line x1="223" x2="520.3333333333333" y1="879.5" y2="879.5" class="net_4"/>
  <circle cx="223" cy="879.5" r="2" style="fill:#000" class="net_4"/>
  <line x1="520.3333333333333" x2="520.3333333333333" y1="879.5" y2="801" class="net_4"/>
  <line x1="135" x2="253" y1="715" y2="715" class="net_4"/>
  <line x1="253" x2="253" y1="715" y2="655.5" class="net_4"/>
  <line x1="135" x2="223" y1="715" y2="715" class="net_4"/>
  <line x1="223" x2="223" y1="715" y2="869.5" class="net_4"/>
  <line x1="223" x2="253" y1="869.5" y2="869.5" class="net_4"/>
  <circle cx="223" cy="869.5" r="2" style="fill:#000" class="net_4"/>
  <line x1="253" x2="253" y1="869.5" y2="854.5" class="net_4"/>
  <line x1="135" x2="223" y1="715" y2="715" class="net_4"/>
  <line x1="223" x2="223" y1="715" y2="1027.5" class="net_4"/>
  <line x1="223" x2="520.3333333333333" y1="1027.5" y2="1027.5" class="net_4"/>
  <line x1="520.3333333333333" x2="520.3333333333333" y1="1027.5" y2="926" class="net_4"/>
  <line x1="135" x2="223" y1="715" y2="715" class="net_4"/>
  <line x1="223" x2="223" y1="715" y2="296" class="net_4"/>
  <line x1="223" x2="495" y1="296" y2="296" class="net_4"/>
  <line x1="495" x2="495" y1="296" y2="377" class="net_4"/>
  <line x1="495" x2="949" y1="377" y2="377" class="net_4"/>
  <circle cx="223" cy="296" r="2" style="fill:#000" class="net_4"/>
  <line x1="949" x2="949" y1="377" y2="68" class="net_4"/>
  <line x1="135" x2="223" y1="715" y2="715" class="net_4"/>
  <line x1="223" x2="223" y1="715" y2="983.5" class="net_4"/>
  <line x1="223" x2="803" y1="983.5" y2="983.5" class="net_4"/>
  <circle cx="223" cy="983.5" r="2" style="fill:#000" class="net_4"/>
  <line x1="803" x2="803" y1="983.5" y2="578.5" class="net_4"/>
  <line x1="135" x2="223" y1="715" y2="715" class="net_4"/>
  <line x1="223" x2="223" y1="715" y2="296" class="net_4"/>
  <line x1="223" x2="581" y1="296" y2="296" class="net_4"/>
  <line x1="581" x2="581" y1="296" y2="356" class="net_4"/>
  <line x1="581" x2="622" y1="356" y2="356" class="net_4"/>
  <circle cx="581" cy="296" r="2" style="fill:#000" class="net_4"/>
  <line x1="622" x2="622" y1="356" y2="341" class="net_4"/>
  <line x1="135" x2="223" y1="715" y2="715" class="net_4"/>
  <line x1="223" x2="223" y1="715" y2="296" class="net_4"/>
  <line x1="223" x2="622" y1="296" y2="296" class="net_4"/>
  <line x1="622" x2="622" y1="296" y2="250.5" class="net_4"/>
  <line x1="135" x2="223" y1="715" y2="715" class="net_4"/>
  <line x1="223" x2="223" y1="715" y2="296" class="net_4"/>
  <line x1="223" x2="495" y1="296" y2="296" class="net_4"/>
  <line x1="495" x2="495" y1="296" y2="184" class="net_4"/>
  <line x1="495" x2="622" y1="184" y2="184" class="net_4"/>
  <circle cx="495" cy="296" r="2" style="fill:#000" class="net_4"/>
  <line x1="622" x2="622" y1="184" y2="169" class="net_4"/>
  <line x1="135" x2="223" y1="715" y2="715" class="net_4"/>
  <line x1="223" x2="223" y1="715" y2="124" class="net_4"/>
  <line x1="223" x2="622" y1="124" y2="124" class="net_4"/>
  <line x1="622" x2="622" y1="124" y2="109" class="net_4"/>
  <line x1="419" x2="495" y1="585" y2="585" class="net_306,307,308,309,310,311,312,313,314,315,316,317"/>
  <line x1="495" x2="495" y1="585" y2="776" class="net_306,307,308,309,310,311,312,313,314,315,316,317"/>
  <line x1="495" x2="510.3333333333333" y1="776" y2="776" class="net_306,307,308,309,310,311,312,313,314,315,316,317"/>
  <line x1="134.2" x2="213" y1="533.5" y2="533.5" class="net_29,30,31,32,33,34,35,36,37,38,39,40"/>
  <line x1="213" x2="213" y1="533.5" y2="796" class="net_29,30,31,32,33,34,35,36,37,38,39,40"/>
  <line x1="213" x2="510.3333333333333" y1="796" y2="796" class="net_29,30,31,32,33,34,35,36,37,38,39,40"/>
  <line x1="137" x2="243" y1="630.5" y2="630.5" class="net_246,247,248,249,250,251,252,253,254,255,256,257"/>
  <line x1="134.2" x2="233" y1="553.5" y2="553.5" class="net_17,18,19,20,21,22,23,24,25,26,27,28"/>
  <line x1="233" x2="233" y1="553.5" y2="650.5" class="net_17,18,19,20,21,22,23,24,25,26,27,28"/>
  <line x1="233" x2="243" y1="650.5" y2="650.5" class="net_17,18,19,20,21,22,23,24,25,26,27,28"/>
  <line x1="137" x2="203" y1="650.5" y2="650.5" class="net_258,259,260,261,262,263,264,265,266,267,268,269"/>
  <line x1="203" x2="203" y1="650.5" y2="829.5" class="net_258,259,260,261,262,263,264,265,266,267,268,269"/>
  <circle cx="203" cy="650.5" r="2" style="fill:#000" class="net_258,259,260,261,262,263,264,265,266,267,268,269"/>
  <line x1="203" x2="243" y1="829.5" y2="829.5" class="net_258,259,260,261,262,263,264,265,266,267,268,269"/>
  <line x1="137" x2="203" y1="650.5" y2="650.5" class="net_258,259,260,261,262,263,264,265,266,267,268,269"/>
  <line x1="203" x2="203" y1="650.5" y2="164" class="net_258,259,260,261,262,263,264,265,266,267,268,269"/>
  <line x1="203" x2="612" y1="164" y2="164" class="net_258,259,260,261,262,263,264,265,266,267,268,269"/>
  <line x1="138" x2="183" y1="104" y2="104" class="net_210,211,212,213,214,215,216,217,218,219,220,221"/>
  <line x1="183" x2="183" y1="104" y2="849.5" class="net_210,211,212,213,214,215,216,217,218,219,220,221"/>
  <circle cx="183" cy="104" r="2" style="fill:#000" class="net_210,211,212,213,214,215,216,217,218,219,220,221"/>
  <line x1="183" x2="243" y1="849.5" y2="849.5" class="net_210,211,212,213,214,215,216,217,218,219,220,221"/>
  <line x1="138" x2="183" y1="104" y2="104" class="net_210,211,212,213,214,215,216,217,218,219,220,221"/>
  <line x1="183" x2="183" y1="104" y2="43" class="net_210,211,212,213,214,215,216,217,218,219,220,221"/>
  <line x1="183" x2="939" y1="43" y2="43" class="net_210,211,212,213,214,215,216,217,218,219,220,221"/>
  <line x1="138" x2="612" y1="104" y2="104" class="net_210,211,212,213,214,215,216,217,218,219,220,221"/>
  <line x1="419" x2="475" y1="605" y2="605" class="net_318,319,320,321,322,323,324,325,326,327,328,329,330,331,332,333,334,335,336,337,338,339,340,341"/>
  <line x1="475" x2="475" y1="605" y2="901" class="net_318,319,320,321,322,323,324,325,326,327,328,329,330,331,332,333,334,335,336,337,338,339,340,341"/>
  <line x1="475" x2="510.3333333333333" y1="901" y2="901" class="net_318,319,320,321,322,323,324,325,326,327,328,329,330,331,332,333,334,335,336,337,338,339,340,341"/>
  <line x1="420" x2="510.3333333333333" y1="921" y2="921" class="net_246,247,248,249,250,251,252,253,254,255,256,257,258,259,260,261,262,263,264,265,266,267,268,269"/>
  <line x1="420" x2="465" y1="921" y2="921" class="net_246,247,248,249,250,251,252,253,254,255,256,257,258,259,260,261,262,263,264,265,266,267,268,269"/>
  <line x1="465" x2="465" y1="921" y2="890.5" class="net_246,247,248,249,250,251,252,253,254,255,256,257,258,259,260,261,262,263,264,265,266,267,268,269"/>
  <line x1="465" x2="72" y1="890.5" y2="890.5" class="net_246,247,248,249,250,251,252,253,254,255,256,257,258,259,260,261,262,263,264,265,266,267,268,269"/>
  <line x1="72" x2="72" y1="890.5" y2="640.5" class="net_246,247,248,249,250,251,252,253,254,255,256,257,258,259,260,261,262,263,264,265,266,267,268,269"/>
  <circle cx="465" cy="921" r="2" style="fill:#000" class="net_246,247,248,249,250,251,252,253,254,255,256,257,258,259,260,261,262,263,264,265,266,267,268,269"/>
  <line x1="72" x2="132" y1="640.5" y2="640.5" class="net_246,247,248,249,250,251,252,253,254,255,256,257,258,259,260,261,262,263,264,265,266,267,268,269"/>
  <line x1="134.2" x2="193" y1="573.5" y2="573.5" class="net_5,6,7,8,9,10,11,12,13,14,15,16"/>
  <line x1="193" x2="193" y1="573.5" y2="63" class="net_5,6,7,8,9,10,11,12,13,14,15,16"/>
  <line x1="193" x2="939" y1="63" y2="63" class="net_5,6,7,8,9,10,11,12,13,14,15,16"/>
  <line x1="510" x2="551" y1="337.5" y2="337.5" class="net_402,403,404,405,406,407,408,409,410,411,412,413,414,415,416,417,418,419,420,421,422,423,424,425,426,427,428,429,430,431,432,433,434,435,436,437"/>
  <line x1="551" x2="551" y1="337.5" y2="553.5" class="net_402,403,404,405,406,407,408,409,410,411,412,413,414,415,416,417,418,419,420,421,422,423,424,425,426,427,428,429,430,431,432,433,434,435,436,437"/>
  <line x1="551" x2="793" y1="553.5" y2="553.5" class="net_402,403,404,405,406,407,408,409,410,411,412,413,414,415,416,417,418,419,420,421,422,423,424,425,426,427,428,429,430,431,432,433,434,435,436,437"/>
  <line x1="723" x2="768" y1="735" y2="735" class="net_306,307,308,309,310,311,312,313,314,315,316,317,318,319,320,321,322,323,324,325,326,327,328,329,330,331,332,333,334,335,336,337,338,339,340,341"/>
  <line x1="768" x2="768" y1="735" y2="573.5" class="net_306,307,308,309,310,311,312,313,314,315,316,317,318,319,320,321,322,323,324,325,326,327,328,329,330,331,332,333,334,335,336,337,338,339,340,341"/>
  <circle cx="768" cy="573.5" r="2" style="fill:#000" class="net_306,307,308,309,310,311,312,313,314,315,316,317,318,319,320,321,322,323,324,325,326,327,328,329,330,331,332,333,334,335,336,337,338,339,340,341"/>
  <line x1="768" x2="793" y1="573.5" y2="573.5" class="net_306,307,308,309,310,311,312,313,314,315,316,317,318,319,320,321,322,323,324,325,326,327,328,329,330,331,332,333,334,335,336,337,338,339,340,341"/>
  <line x1="723" x2="768" y1="735" y2="735" class="net_306,307,308,309,310,311,312,313,314,315,316,317,318,319,320,321,322,323,324,325,326,327,328,329,330,331,332,333,334,335,336,337,338,339,340,341"/>
  <line x1="768" x2="768" y1="735" y2="564.5" class="net_306,307,308,309,310,311,312,313,314,315,316,317,318,319,320,321,322,323,324,325,326,327,328,329,330,331,332,333,334,335,336,337,338,339,340,341"/>
  <line x1="768" x2="339" y1="564.5" y2="564.5" class="net_306,307,308,309,310,311,312,313,314,315,316,317,318,319,320,321,322,323,324,325,326,327,328,329,330,331,332,333,334,335,336,337,338,339,340,341"/>
  <line x1="339" x2="339" y1="564.5" y2="595" class="net_306,307,308,309,310,311,312,313,314,315,316,317,318,319,320,321,322,323,324,325,326,327,328,329,330,331,332,333,334,335,336,337,338,339,340,341"/>
  <line x1="339" x2="414" y1="595" y2="595" class="net_306,307,308,309,310,311,312,313,314,315,316,317,318,319,320,321,322,323,324,325,326,327,328,329,330,331,332,333,334,335,336,337,338,339,340,341"/>
  <line x1="510" x2="591" y1="205.5" y2="205.5" class="net_89,90,91,92,93,94,95,96,97,98,99,100"/>
  <line x1="591" x2="591" y1="205.5" y2="316" class="net_89,90,91,92,93,94,95,96,97,98,99,100"/>
  <line x1="591" x2="612" y1="316" y2="316" class="net_89,90,91,92,93,94,95,96,97,98,99,100"/>
  <line x1="510" x2="561" y1="357.5" y2="357.5" class="net_426,427,428,429,430,431,432,433,434,435,436,437"/>
  <line x1="561" x2="561" y1="357.5" y2="336" class="net_426,427,428,429,430,431,432,433,434,435,436,437"/>
  <line x1="561" x2="612" y1="336" y2="336" class="net_426,427,428,429,430,431,432,433,434,435,436,437"/>
  <line x1="510" x2="612" y1="225.5" y2="225.5" class="net_77,78,79,80,81,82,83,84,85,86,87,88"/>
  <line x1="419" x2="485" y1="625" y2="625" class="net_330,331,332,333,334,335,336,337,338,339,340,341"/>
  <line x1="485" x2="485" y1="625" y2="285" class="net_330,331,332,333,334,335,336,337,338,339,340,341"/>
  <line x1="485" x2="571" y1="285" y2="285" class="net_330,331,332,333,334,335,336,337,338,339,340,341"/>
  <line x1="571" x2="571" y1="285" y2="245.5" class="net_330,331,332,333,334,335,336,337,338,339,340,341"/>
  <line x1="571" x2="612" y1="245.5" y2="245.5" class="net_330,331,332,333,334,335,336,337,338,339,340,341"/>
  <line x1="510" x2="551" y1="245.5" y2="245.5" class="net_65,66,67,68,69,70,71,72,73,74,75,76"/>
  <line x1="551" x2="551" y1="245.5" y2="144" class="net_65,66,67,68,69,70,71,72,73,74,75,76"/>
  <line x1="551" x2="612" y1="144" y2="144" class="net_65,66,67,68,69,70,71,72,73,74,75,76"/>
  <line x1="510" x2="561" y1="265.5" y2="265.5" class="net_53,54,55,56,57,58,59,60,61,62,63,64"/>
  <line x1="561" x2="561" y1="265.5" y2="84" class="net_53,54,55,56,57,58,59,60,61,62,63,64"/>
  <line x1="561" x2="612" y1="84" y2="84" class="net_53,54,55,56,57,58,59,60,61,62,63,64"/>
  <line x1="632" x2="701.25" y1="94" y2="94" class="net_101,102,103,104,105,106,107,108,109,110,111,112"/>
  <line x1="632" x2="642" y1="154" y2="154" class="net_113,114,115,116,117,118,119,120,121,122,123,124"/>
  <line x1="642" x2="642" y1="154" y2="114" class="net_113,114,115,116,117,118,119,120,121,122,123,124"/>
  <line x1="642" x2="701.25" y1="114" y2="114" class="net_113,114,115,116,117,118,119,120,121,122,123,124"/>
  <line x1="632" x2="652" y1="235.5" y2="235.5" class="net_125,126,127,128,129,130,131,132,133,134,135,136"/>
  <line x1="652" x2="652" y1="235.5" y2="134" class="net_125,126,127,128,129,130,131,132,133,134,135,136"/>
  <line x1="652" x2="701.25" y1="134" y2="134" class="net_125,126,127,128,129,130,131,132,133,134,135,136"/>
  <line x1="632" x2="701.75" y1="326" y2="326" class="net_137,138,139,140,141,142,143,144,145,146,147,148"/>
  <line x1="701.75" x2="701.75" y1="326" y2="154.5" class="net_137,138,139,140,141,142,143,144,145,146,147,148"/>
  <line x1="263" x2="273" y1="640.5" y2="640.5" class="net_222,223,224,225,226,227,228,229,230,231,232,233"/>
  <line x1="273" x2="273" y1="640.5" y2="819.5" class="net_222,223,224,225,226,227,228,229,230,231,232,233"/>
  <line x1="273" x2="323" y1="819.5" y2="819.5" class="net_222,223,224,225,226,227,228,229,230,231,232,233"/>
  <line x1="263" x2="323" y1="839.5" y2="839.5" class="net_234,235,236,237,238,239,240,241,242,243,244,245"/>
  <line x1="530.3333333333333" x2="626" y1="786" y2="786" class="net_270,271,272,273,274,275,276,277,278,279,280,281"/>
  <line x1="530.3333333333333" x2="551" y1="911" y2="911" class="net_282,283,284,285,286,287,288,289,290,291,292,293,294,295,296,297,298,299,300,301,302,303,304,305"/>
  <line x1="551" x2="551" y1="911" y2="806" class="net_282,283,284,285,286,287,288,289,290,291,292,293,294,295,296,297,298,299,300,301,302,303,304,305"/>
  <line x1="551" x2="626" y1="806" y2="806" class="net_282,283,284,285,286,287,288,289,290,291,292,293,294,295,296,297,298,299,300,301,302,303,304,305"/>
  <line x1="813" x2="873" y1="503.5" y2="503.5" class="net_342,343,344,345,346,347,348,349,350,351,352,353"/>
  <line x1="813" x2="823" y1="563.5" y2="563.5" class="net_354,355,356,357,358,359,360,361,362,363,364,365,366,367,368,369,370,371,372,373,374,375,376,377,378,379,380,381,382,383,384,385,386,387,388,389"/>
  <line x1="823" x2="823" y1="563.5" y2="523.5" class="net_354,355,356,357,358,359,360,361,362,363,364,365,366,367,368,369,370,371,372,373,374,375,376,377,378,379,380,381,382,383,384,385,386,387,388,389"/>
  <line x1="823" x2="873" y1="523.5" y2="523.5" class="net_354,355,356,357,358,359,360,361,362,363,364,365,366,367,368,369,370,371,372,373,374,375,376,377,378,379,380,381,382,383,384,385,386,387,388,389"/>
  <line x1="970" x2="1025" y1="473.5" y2="473.5" class="net_390,391,392,393,394,395,396,397,398,399,400,401,402,403,404,405,406,407,408,409,410,411,412,413,414,415,416,417,418,419,420,421,422,423,424,425,426,427,428,429,430,431,432,433,434,435,436,437"/>
  <line x1="1025" x2="1025" y1="473.5" y2="12" class="net_390,391,392,393,394,395,396,397,398,399,400,401,402,403,404,405,406,407,408,409,410,411,412,413,414,415,416,417,418,419,420,421,422,423,424,425,426,427,428,429,430,431,432,433,434,435,436,437"/>
  <line x1="1025" x2="465" y1="12" y2="12" class="net_390,391,392,393,394,395,396,397,398,399,400,401,402,403,404,405,406,407,408,409,410,411,412,413,414,415,416,417,418,419,420,421,422,423,424,425,426,427,428,429,430,431,432,433,434,435,436,437"/>
  <line x1="465" x2="465" y1="12" y2="327.5" class="net_390,391,392,393,394,395,396,397,398,399,400,401,402,403,404,405,406,407,408,409,410,411,412,413,414,415,416,417,418,419,420,421,422,423,424,425,426,427,428,429,430,431,432,433,434,435,436,437"/>
  <line x1="465" x2="505" y1="327.5" y2="327.5" class="net_390,391,392,393,394,395,396,397,398,399,400,401,402,403,404,405,406,407,408,409,410,411,412,413,414,415,416,417,418,419,420,421,422,423,424,425,426,427,428,429,430,431,432,433,434,435,436,437"/>
  <line x1="40" x2="129.2" y1="523.5" y2="523.5" class="net_5,6,7,8,9,10,11,12,13,14,15,16,17,18,19,20,21,22,23,24,25,26,27,28,29,30,31,32,33,34,35,36,37,38,39,40,41,42,43,44,45,46,47,48,49,50,51,52"/>
</svg>
